<?xml version="1.0" standalone="no"?>
<!DOCTYPE svg PUBLIC "-//W3C//DTD SVG 20010904//EN"
 "http://www.w3.org/TR/2001/REC-SVG-20010904/DTD/svg10.dtd">
<svg version="1.0" xmlns="http://www.w3.org/2000/svg"
 width="1651.000000pt" height="465.000000pt" viewBox="0 0 1651.000000 465.000000"
 preserveAspectRatio="xMidYMid meet">

<g transform="translate(0.000000,465.000000) scale(0.100000,-0.100000)"
fill="#000000" stroke="none">
<path d="M5737 4059 c-69 -11 -134 -80 -197 -207 -18 -37 -49 -85 -68 -106
-33 -37 -106 -182 -147 -290 -11 -28 -27 -52 -39 -57 -12 -4 -127 -13 -256
-19 -245 -11 -355 -30 -355 -60 0 -29 213 -41 449 -25 124 8 129 7 123 -11
-14 -45 -99 -273 -118 -319 -12 -27 -27 -71 -35 -97 -7 -26 -26 -76 -42 -110
-16 -35 -35 -81 -42 -103 -23 -72 -231 -381 -328 -486 -57 -62 -89 -80 -103
-58 -15 23 -10 112 11 213 11 53 19 107 18 119 -2 32 27 116 84 240 37 80 48
115 43 134 -8 34 -64 90 -99 99 -37 9 -98 -20 -152 -72 -43 -42 -54 -45 -54
-15 0 33 -58 137 -93 168 -65 57 -134 56 -211 -3 -25 -19 -49 -34 -54 -34 -6
0 -35 -27 -65 -60 -41 -44 -74 -96 -121 -193 -65 -132 -67 -134 -190 -255 -68
-67 -131 -122 -140 -122 -27 0 -19 76 20 185 20 55 39 118 43 140 5 22 18 60
29 85 12 25 22 62 22 82 0 48 -35 73 -97 72 -69 -1 -110 -37 -203 -176 -130
-192 -283 -374 -342 -404 -51 -27 -78 -14 -78 36 0 34 33 120 43 113 6 -4 8 0
4 10 -3 10 -3 17 2 17 4 0 24 44 45 98 45 119 96 221 140 285 64 91 56 144
-25 168 -90 27 -159 -21 -224 -156 -20 -41 -48 -89 -61 -105 -31 -37 -78 -163
-111 -300 -31 -128 -30 -254 2 -310 22 -37 89 -68 110 -50 7 6 26 12 43 14 17
2 44 11 59 21 53 35 176 161 270 278 52 64 96 117 98 117 1 0 -8 -34 -21 -75
-31 -97 -31 -167 -1 -219 30 -53 78 -78 142 -73 75 5 120 32 221 130 l92 88
-1 -98 c-2 -88 1 -104 26 -154 42 -87 50 -92 152 -90 l60 1 101 104 c73 74
121 136 174 221 40 64 83 129 97 143 l25 27 -6 -25 c-4 -14 -18 -69 -32 -123
-33 -124 -31 -272 3 -348 48 -106 119 -151 203 -129 59 15 168 126 263 265 37
54 67 95 67 91 0 -5 -14 -68 -31 -140 -74 -307 -48 -441 96 -507 58 -27 90
-24 141 13 76 54 377 436 554 703 41 61 95 138 122 173 26 35 51 74 54 87 l6
23 36 -21 c28 -17 53 -22 109 -22 45 0 71 -4 69 -10 -2 -5 -34 -74 -70 -153
-36 -78 -66 -148 -66 -155 0 -7 -7 -23 -16 -36 -28 -40 -54 -143 -54 -217 0
-125 71 -224 160 -224 21 0 48 8 61 18 13 10 32 21 41 25 10 3 58 38 108 77
90 71 188 183 295 338 52 74 65 85 65 54 0 -37 53 -123 106 -171 93 -85 211
-104 316 -51 62 30 180 120 193 145 18 36 58 84 66 80 10 -7 83 86 131 167 22
37 45 72 52 77 7 6 51 16 97 22 145 19 229 51 229 87 -1 43 -11 45 -139 18
-67 -14 -127 -26 -135 -26 -10 0 -6 26 16 113 34 132 45 245 29 303 -14 53
-111 156 -172 184 -123 56 -236 -17 -334 -214 -37 -75 -43 -81 -82 -93 -99
-28 -211 -139 -291 -289 -33 -61 -121 -188 -230 -331 -97 -128 -185 -243 -194
-257 -24 -34 -136 -116 -159 -116 -14 0 -19 7 -19 25 0 34 97 289 176 461 35
78 64 155 64 171 0 60 -70 93 -195 93 -46 0 -78 5 -91 15 -12 8 -23 12 -26 10
-2 -2 -5 8 -6 22 -2 27 46 125 58 118 12 -8 33 53 26 78 -7 29 -78 51 -125 37
-102 -29 -179 -168 -137 -248 17 -32 22 -67 8 -58 -12 7 -47 -25 -82 -79 -90
-135 -462 -596 -548 -680 -46 -44 -69 -77 -42 -60 6 3 10 4 10 1 0 -3 -19 -15
-41 -27 -30 -15 -44 -18 -52 -10 -56 56 139 713 372 1254 28 65 51 125 51 133
0 27 40 94 58 95 9 1 60 3 112 4 126 4 240 18 267 33 20 11 42 57 32 66 -2 2
-84 -1 -182 -7 -106 -6 -182 -6 -187 -1 -5 5 7 38 29 79 21 39 63 117 92 174
29 57 65 115 79 130 37 37 110 136 110 148 0 6 7 16 15 23 21 17 19 54 -4 74
-23 21 -118 34 -174 25z m-139 -524 c-12 -24 -23 -43 -26 -41 -4 5 36 86 43
86 3 0 -5 -20 -17 -45z m-67 -141 c-16 -33 -30 -56 -31 -52 0 11 53 118 58
114 2 -2 -10 -30 -27 -62z m-50 -111 c-11 -21 -20 -35 -21 -31 0 12 33 78 38
74 2 -2 -6 -21 -17 -43z m1903 -119 c37 -37 33 -133 -13 -322 -34 -136 -63
-201 -89 -203 -211 -17 -232 93 -79 419 6 12 34 45 63 72 56 53 90 63 118 34z
m-2060 -250 c-14 -38 -73 -197 -130 -354 -57 -157 -103 -280 -104 -274 0 20
70 243 116 368 51 135 136 337 141 332 2 -2 -9 -34 -23 -72z m-1005 -8 c7 -8
14 -39 16 -68 2 -29 8 -66 14 -81 23 -58 14 -80 -87 -224 -208 -295 -272 -356
-272 -258 0 18 4 55 10 82 5 26 12 65 15 86 4 24 10 35 17 31 8 -5 9 -1 4 11
-9 24 12 87 26 79 7 -4 8 -2 4 5 -10 15 13 83 25 76 5 -4 6 1 3 9 -3 9 -1 16
5 16 6 0 8 7 4 17 -4 10 -2 14 4 10 12 -8 26 20 17 34 -3 5 0 9 6 9 6 0 8 5 5
10 -3 6 -2 10 3 10 4 0 18 23 31 52 39 89 115 136 150 94z m2718 -239 c22 -25
145 -82 196 -91 l37 -7 -16 -32 c-34 -64 -115 -177 -167 -230 -63 -65 -126
-106 -187 -122 -56 -14 -91 -6 -107 25 -17 33 -16 60 2 129 24 92 114 307 157
374 l31 49 19 -38 c10 -20 26 -46 35 -57z m-3432 56 c-4 -10 -18 -45 -31 -78
-16 -41 -23 -52 -23 -35 -1 26 43 130 55 130 3 0 3 -8 -1 -17z m1482 -475 c-3
-8 -6 -5 -6 6 -1 11 2 17 5 13 3 -3 4 -12 1 -19z"/>
<path d="M11200 4060 c-19 -4 -45 -12 -56 -18 -39 -21 -99 -98 -143 -183 -24
-46 -57 -100 -74 -119 -30 -34 -105 -184 -142 -284 -11 -28 -27 -52 -39 -56
-12 -5 -126 -14 -255 -20 -185 -8 -249 -14 -304 -31 -59 -17 -68 -23 -56 -34
22 -22 260 -40 347 -26 70 11 232 15 232 6 0 -2 -9 -28 -21 -57 -12 -29 -39
-104 -61 -167 -21 -63 -48 -131 -59 -152 -10 -21 -19 -48 -19 -59 0 -11 -17
-57 -38 -101 -35 -72 -47 -85 -116 -138 -91 -68 -364 -218 -375 -205 -10 11
-49 197 -50 239 -1 17 -8 57 -17 90 -8 33 -15 79 -15 102 -1 49 19 116 31 108
4 -3 11 18 15 45 11 81 -26 120 -102 105 -25 -4 -53 -23 -93 -64 -49 -49 -60
-66 -71 -115 -10 -47 -10 -71 0 -125 7 -36 16 -104 21 -151 5 -47 23 -132 39
-190 47 -160 46 -163 -60 -225 -157 -92 -294 -219 -335 -311 -26 -59 -29 -84
-15 -112 6 -9 12 -29 16 -45 8 -42 69 -102 128 -128 79 -35 221 -39 302 -8 69
26 152 98 189 165 51 92 61 139 59 284 -2 74 -4 148 -5 165 -3 28 2 33 62 63
36 19 115 67 175 107 61 40 112 71 114 70 4 -4 -15 -95 -64 -305 -80 -343 -63
-464 76 -534 67 -33 96 -33 148 2 70 47 341 385 529 661 l71 103 -6 -84 c-7
-104 12 -178 59 -231 36 -40 37 -40 123 -38 l59 1 99 102 c61 63 119 135 153
192 84 137 128 199 132 187 2 -6 -9 -57 -24 -114 -51 -192 -34 -348 48 -442
112 -128 239 -60 433 233 26 39 49 72 49 72 1 0 1 -39 1 -87 0 -129 35 -229
102 -297 l36 -36 -33 -64 c-42 -82 -37 -96 33 -96 63 0 93 -21 58 -40 -21 -11
-133 -16 -148 -7 -22 14 -38 -14 -37 -65 1 -81 14 -98 77 -98 135 0 242 110
208 213 -12 34 -80 107 -101 107 -6 0 -6 9 1 23 8 18 24 26 67 35 32 6 86 29
121 49 81 48 303 267 386 381 l59 82 11 -52 c40 -193 227 -320 388 -265 79 27
237 143 237 173 0 7 22 31 48 54 50 41 94 98 162 206 l38 61 98 16 c55 8 100
14 102 12 1 -1 -4 -31 -12 -66 -31 -133 -58 -324 -51 -368 9 -59 36 -108 87
-158 86 -83 188 -112 269 -76 58 27 165 126 230 216 29 39 76 99 104 132 79
91 305 386 305 397 0 21 -22 48 -38 48 -21 0 -52 -32 -108 -110 -21 -30 -76
-100 -122 -155 -46 -55 -92 -116 -102 -135 -31 -61 -206 -218 -287 -259 -115
-58 -142 -1 -99 209 14 69 26 141 28 160 2 25 10 38 28 46 14 7 59 28 100 48
87 40 209 140 275 224 57 72 79 136 73 210 -4 49 -9 59 -45 93 -70 65 -191 80
-287 36 -89 -41 -192 -161 -275 -318 l-38 -74 -84 -17 c-128 -26 -120 -34 -87
90 34 126 46 262 29 315 -16 48 -117 152 -172 177 -67 30 -118 26 -175 -13
-63 -44 -137 -141 -165 -216 -21 -58 -23 -61 -73 -77 -28 -9 -69 -29 -91 -44
-55 -38 -139 -128 -164 -178 -11 -22 -25 -43 -31 -47 -5 -3 -57 -68 -114 -143
-57 -75 -138 -177 -180 -225 -42 -49 -76 -94 -76 -101 0 -15 -182 -154 -227
-172 -52 -22 -78 -6 -93 57 -32 134 27 429 143 714 22 55 40 105 40 112 0 7 5
13 10 13 6 0 8 3 4 6 -8 9 36 95 60 116 30 28 57 17 64 -26 8 -47 4 -71 -28
-174 -14 -45 -22 -89 -19 -97 8 -23 68 -18 107 8 50 34 63 68 64 173 0 81 -3
96 -30 149 -41 79 -71 100 -143 99 -73 0 -108 -19 -191 -103 -54 -53 -79 -90
-128 -186 -33 -66 -63 -132 -66 -146 -4 -14 -15 -35 -25 -46 -10 -12 -31 -59
-47 -105 -44 -130 -269 -450 -347 -496 -22 -13 -30 -14 -40 -4 -18 18 -13 119
12 235 12 53 19 101 15 106 -7 12 40 140 89 242 43 90 45 130 12 174 -57 74
-131 68 -218 -15 -29 -28 -52 -49 -53 -47 0 1 -9 29 -20 62 -24 72 -67 131
-115 157 -55 30 -105 20 -200 -42 -87 -58 -132 -109 -201 -231 -62 -108 -107
-172 -249 -354 -188 -242 -322 -404 -384 -465 -33 -31 -51 -57 -45 -61 6 -3
-9 -16 -32 -27 -30 -15 -47 -18 -54 -11 -53 53 127 674 340 1175 41 96 80 193
85 216 6 24 20 54 30 68 18 23 24 25 127 26 114 2 247 16 274 28 22 10 45 54
33 65 -5 5 -82 4 -176 -1 -92 -6 -174 -8 -183 -4 -13 5 -10 16 19 73 19 38 44
82 55 98 12 17 21 35 21 42 0 17 99 183 109 183 4 0 24 24 45 53 95 134 101
151 67 181 -23 20 -118 35 -171 26z m-147 -535 c-26 -52 -49 -93 -51 -91 -4 5
86 186 93 186 3 0 -16 -43 -42 -95z m-77 -162 c-14 -26 -25 -45 -26 -41 0 12
43 98 48 94 2 -2 -8 -26 -22 -53z m-55 -120 c-12 -20 -14 -14 -5 12 4 9 9 14
11 11 3 -2 0 -13 -6 -23z m3005 -71 c22 -15 34 -52 34 -109 0 -73 -52 -298
-84 -369 l-25 -54 -61 0 c-120 0 -154 47 -126 177 8 40 29 100 45 135 17 34
31 70 31 80 0 9 28 46 63 82 61 65 92 79 123 58z m-3105 -159 c-12 -20 -14
-14 -5 12 4 9 9 14 11 11 3 -2 0 -13 -6 -23z m3926 -14 c9 -18 11 -47 6 -89
-6 -57 -11 -69 -64 -134 -32 -39 -74 -84 -95 -101 -49 -39 -117 -85 -126 -85
-10 0 66 180 114 271 48 91 114 171 137 167 9 -2 21 -15 28 -29z m-3973 -109
c-20 -52 -78 -212 -129 -355 -109 -307 -106 -300 -99 -255 18 103 245 722 260
707 2 -2 -13 -46 -32 -97z m936 10 c6 -11 8 -25 4 -31 -3 -6 4 -50 17 -98 l23
-88 -94 -134 c-110 -157 -205 -278 -238 -303 -36 -27 -46 -9 -38 66 4 35 8 75
8 91 0 15 5 27 10 27 5 0 7 4 4 9 -10 15 34 142 46 135 7 -4 8 -3 4 5 -10 16
3 53 16 45 6 -4 8 1 3 16 -5 15 -4 20 4 16 6 -4 12 -1 12 6 1 7 3 20 4 28 1 8
3 21 4 28 0 7 6 10 13 6 8 -5 9 -2 5 9 -3 10 -3 17 2 17 5 0 20 26 34 58 14
32 39 70 57 85 38 33 85 36 100 7z m1926 -266 c25 -15 77 -36 115 -48 l70 -21
-53 -90 c-99 -166 -250 -292 -355 -297 -115 -4 -109 91 29 412 12 30 38 81 56
114 l34 59 29 -51 c20 -35 44 -60 75 -78z m584 -264 c-6 -36 -20 -94 -31 -130
l-19 -65 6 90 c6 100 46 252 53 200 1 -17 -2 -59 -9 -95z m-3683 -152 c-3 -8
-6 -5 -6 6 -1 11 2 17 5 13 3 -3 4 -12 1 -19z m-710 -140 c-5 -71 -11 -94 -49
-168 -41 -82 -45 -86 -103 -114 -65 -31 -153 -39 -180 -16 -55 45 32 179 180
277 38 26 86 59 105 75 19 15 39 28 44 28 5 0 6 -35 3 -82z m101 -309 c-24
-32 -86 -73 -128 -83 -14 -4 -5 4 20 18 25 13 63 40 85 60 49 43 51 44 23 5z
m-191 -105 c-3 -3 -12 -4 -19 -1 -8 3 -5 6 6 6 11 1 17 -2 13 -5z"/>
<path d="M9073 3985 c-12 -9 -28 -39 -38 -70 -21 -73 -42 -86 -152 -92 -112
-5 -129 -9 -153 -33 -47 -47 -6 -129 74 -149 25 -6 63 -11 86 -11 50 0 57 34
-77 -359 -56 -167 -103 -312 -103 -322 0 -58 -49 -89 -141 -89 -50 0 -89 -22
-89 -50 0 -28 47 -78 80 -85 16 -4 32 -10 34 -13 6 -9 -82 -271 -133 -400 -23
-56 -41 -111 -41 -122 0 -10 -4 -21 -9 -25 -5 -3 -12 -20 -16 -38 -4 -17 -22
-65 -42 -105 -30 -63 -35 -81 -31 -126 11 -133 162 -245 317 -234 116 9 275
106 478 294 129 118 182 204 138 221 -9 3 -114 -49 -258 -129 -244 -135 -342
-184 -386 -190 -45 -6 -35 47 55 299 46 129 111 318 144 421 33 102 66 189 73
194 6 4 37 10 67 14 30 3 82 14 115 24 33 9 101 23 150 30 50 6 104 20 121 30
17 10 56 21 85 25 59 8 106 39 89 60 -7 8 -37 8 -122 -2 -370 -43 -474 -51
-464 -34 5 8 146 386 243 651 19 52 42 102 51 111 20 19 134 49 189 49 21 1
56 8 78 16 22 9 69 22 105 29 151 28 267 58 298 76 18 10 48 19 65 19 34 0
112 21 147 40 28 15 24 56 -5 52 -11 -2 -51 -5 -90 -8 -38 -3 -151 -14 -250
-24 -481 -52 -468 -52 -479 -32 -19 34 -74 78 -113 90 -52 16 -64 15 -90 -3z
m-228 -822 c-27 -88 -104 -277 -111 -270 -2 2 26 84 61 182 36 98 65 181 65
184 0 2 3 2 6 -2 3 -3 -6 -45 -21 -94z"/>
<path d="M2611 3759 c-203 -35 -277 -93 -327 -255 -15 -47 -25 -87 -22 -89 2
-3 76 45 163 106 185 129 220 148 351 190 83 27 95 33 78 42 -25 14 -175 18
-243 6z"/>
<path d="M431 3708 c7 -13 46 -74 87 -136 77 -116 142 -183 357 -367 96 -83
133 -110 140 -104 6 7 -23 133 -42 180 -74 188 -221 327 -430 409 -119 47
-128 48 -112 18z"/>
<path d="M2778 3695 c-53 -18 -123 -47 -155 -64 -81 -44 -336 -224 -334 -236
1 -6 36 -9 85 -9 188 4 328 79 452 243 62 83 72 102 57 100 -5 0 -52 -16 -105
-34z"/>
<path d="M403 3630 c6 -94 34 -184 97 -310 99 -197 193 -254 404 -248 l95 3
-96 80 c-53 43 -148 127 -212 184 -98 90 -128 125 -204 241 l-89 135 5 -85z"/>
<path d="M1773 3614 c-39 -14 -114 -83 -125 -115 -3 -10 -12 -5 -32 18 -46 54
-135 66 -282 38 -99 -19 -174 -55 -209 -101 -59 -78 -110 -230 -79 -241 6 -2
32 13 58 33 59 45 95 54 211 53 69 0 117 7 208 30 194 51 347 38 512 -43 158
-78 272 -207 395 -448 39 -76 75 -138 81 -138 15 0 65 85 79 135 8 27 11 75 8
120 -10 152 -120 305 -244 340 -91 26 -130 54 -244 173 -60 62 -124 119 -149
131 -56 29 -134 35 -188 15z"/>
<path d="M13805 3600 c-69 -28 -143 -85 -151 -115 -13 -50 30 -69 88 -39 45
24 121 13 216 -30 88 -40 122 -44 182 -20 56 22 134 117 120 144 -11 21 -35
17 -44 -6 -8 -22 -54 -35 -93 -28 -20 4 -69 29 -110 57 -89 59 -133 67 -208
37z"/>
<path d="M1404 3255 c-92 -25 -162 -65 -215 -123 -104 -114 -141 -234 -141
-454 0 -81 5 -162 11 -180 7 -18 27 -44 46 -58 19 -14 80 -80 135 -147 131
-159 163 -177 321 -178 100 0 109 2 133 24 14 14 26 28 26 32 0 20 -35 38
-101 53 -104 23 -214 79 -271 138 -58 59 -135 210 -147 288 -17 103 13 295 56
369 42 71 143 166 199 186 90 31 94 34 88 50 -8 19 -69 19 -140 0z"/>
<path d="M1607 3159 c-43 -10 -90 -25 -105 -33 l-27 -15 41 -1 c59 0 190 -35
261 -70 69 -34 104 -73 151 -165 53 -107 63 -156 70 -350 7 -167 9 -184 33
-230 27 -53 77 -95 114 -95 25 0 27 10 45 161 9 83 27 126 95 224 104 152 78
319 -69 437 -171 137 -399 189 -609 137z"/>
<path d="M15275 3091 c-43 -27 -112 -101 -124 -134 -16 -41 -13 -156 4 -213 8
-27 15 -74 15 -104 0 -30 11 -95 25 -145 54 -195 53 -184 20 -212 -17 -13 -70
-50 -120 -82 -122 -79 -215 -159 -253 -217 -37 -55 -68 -147 -52 -152 5 -2 10
-13 10 -25 1 -38 37 -103 71 -130 60 -44 108 -59 214 -64 132 -7 192 14 273
96 108 106 137 203 129 419 -5 138 -4 143 17 156 11 7 57 33 101 58 84 48 283
184 323 221 49 45 65 104 37 127 -21 17 -60 -1 -136 -63 -75 -61 -373 -228
-384 -215 -7 8 -45 190 -49 233 -5 45 -13 90 -32 167 -9 39 4 115 23 134 24
24 34 93 17 125 -22 44 -77 52 -129 20z m-27 -1018 c-4 -76 -9 -97 -40 -158
-45 -87 -67 -108 -143 -133 -91 -30 -165 -15 -165 35 0 22 38 97 69 134 16 20
77 68 135 108 58 40 110 79 117 87 25 30 31 13 27 -73z m112 -292 c-19 -36
-84 -81 -148 -102 -35 -12 -65 -19 -68 -17 -2 3 15 11 38 18 56 16 116 52 153
90 33 35 40 38 25 11z"/>
<path d="M12799 3053 c-13 -16 -12 -17 4 -4 16 13 21 21 13 21 -2 0 -10 -8
-17 -17z"/>
<path d="M1435 2978 c-158 -65 -180 -95 -180 -243 0 -121 18 -167 97 -251 83
-88 198 -145 400 -199 80 -21 119 -11 144 37 38 74 35 277 -5 357 -25 49 -43
60 -179 110 -132 48 -191 53 -243 18 -52 -34 -72 -85 -64 -157 11 -93 54 -129
141 -118 28 4 28 4 -12 16 -49 14 -73 39 -83 84 -26 121 103 220 205 158 73
-46 93 -155 43 -237 -28 -44 -66 -63 -131 -63 -139 1 -257 123 -246 256 6 65
44 125 96 151 50 24 169 24 239 0 65 -23 95 -16 91 21 -2 22 -15 33 -62 56
-88 44 -150 45 -251 4z"/>
<path d="M1590 2745 c0 -3 7 -16 15 -29 22 -34 10 -56 -31 -56 -27 0 -34 -4
-34 -20 0 -38 72 -48 97 -14 27 38 5 124 -33 124 -8 0 -14 -2 -14 -5z"/>
<path d="M2375 2698 c-4 -21 -2 -76 5 -123 l12 -84 -41 -62 c-24 -36 -52 -97
-67 -147 -16 -51 -36 -95 -51 -110 -23 -23 -29 -24 -86 -18 -176 20 -144 25
-372 -63 -115 -45 -211 -84 -214 -86 -10 -11 20 -55 47 -69 16 -8 60 -20 98
-26 37 -6 98 -24 134 -40 86 -38 191 -54 311 -47 220 12 306 109 370 419 30
145 23 236 -25 333 -20 40 -53 92 -75 116 l-39 44 -7 -37z"/>
<path d="M901 2668 c-5 -18 -12 -91 -16 -163 l-6 -130 50 -73 51 -74 0 -98 c0
-139 11 -147 183 -137 106 7 290 37 303 50 13 13 -29 36 -86 48 -109 22 -204
85 -289 193 -67 85 -91 134 -102 213 -12 89 -48 203 -64 203 -8 0 -18 -15 -24
-32z"/>
<path d="M1408 1864 c-48 -66 -78 -130 -78 -172 0 -38 31 -135 65 -202 23 -46
114 -155 122 -146 2 2 -8 42 -22 88 -21 66 -29 115 -36 238 -5 85 -10 175 -11
200 l-3 45 -37 -51z"/>
<path d="M1473 1725 c4 -175 6 -197 32 -280 16 -49 32 -94 36 -98 10 -12 57
137 65 203 12 106 -35 251 -105 330 l-32 35 4 -190z"/>
<path d="M12247 1234 c-2 -5 -54 -130 -115 -279 -61 -148 -120 -292 -131 -318
l-21 -48 37 3 c36 3 38 5 69 83 l32 80 133 0 134 0 32 -80 c31 -77 33 -80 67
-83 34 -3 36 -2 27 21 -10 25 -219 536 -244 596 -8 18 -17 30 -20 25z m61
-281 l49 -128 -100 -3 c-55 -1 -102 0 -105 3 -7 6 90 255 100 255 3 0 29 -57
56 -127z"/>
<path d="M6575 1182 c-238 -117 -246 -434 -15 -561 59 -33 72 -36 145 -36 72
0 86 4 144 35 228 123 226 439 -4 558 -38 19 -69 26 -130 29 -73 4 -86 1 -140
-25z m244 -61 c123 -63 171 -219 105 -340 -46 -86 -121 -131 -219 -131 -98 0
-173 45 -220 131 -76 141 2 319 160 360 44 12 131 1 174 -20z"/>
<path d="M8410 1201 c-224 -69 -301 -352 -142 -519 26 -28 67 -60 91 -72 129
-65 304 -15 381 107 17 26 30 51 30 55 0 4 -16 8 -35 8 -19 0 -35 -4 -35 -9 0
-19 -84 -91 -125 -107 -105 -39 -230 4 -290 100 -27 44 -30 58 -30 131 0 73 3
87 30 131 67 108 199 145 313 88 28 -14 66 -43 83 -65 23 -29 38 -39 60 -39
16 0 29 4 29 9 0 5 -15 31 -32 57 -36 54 -109 108 -166 124 -42 11 -125 12
-162 1z"/>
<path d="M5340 895 l0 -305 30 0 30 0 0 140 0 140 145 0 145 0 0 30 0 30 -145
0 -145 0 0 105 0 105 150 0 150 0 0 30 0 30 -180 0 -180 0 0 -305z"/>
<path d="M5920 895 l0 -305 140 0 140 0 0 30 0 29 -107 3 -108 3 -3 273 -2
272 -30 0 -30 0 0 -305z"/>
<path d="M7260 895 l0 -305 30 0 30 0 0 120 0 120 39 0 c39 0 41 -2 128 -120
l88 -120 44 0 c33 0 41 3 34 13 -168 213 -174 222 -151 231 75 31 93 43 120
85 26 41 29 53 26 108 -3 51 -9 69 -34 99 -52 64 -81 74 -226 74 l-128 0 0
-305z m271 228 c38 -23 63 -76 56 -120 -14 -84 -66 -115 -185 -111 l-77 3 -3
123 -3 122 92 0 c68 0 98 -4 120 -17z"/>
<path d="M7880 895 l0 -305 35 0 35 0 0 305 0 305 -35 0 -35 0 0 -305z"/>
<path d="M8990 967 c0 -222 1 -235 23 -277 38 -76 124 -117 228 -107 58 5 123
32 150 63 46 53 50 73 50 317 l0 232 -30 3 -31 3 0 -228 c0 -211 -2 -230 -20
-261 -26 -42 -73 -62 -147 -62 -72 0 -122 24 -145 71 -16 29 -18 64 -18 257
l0 222 -30 0 -30 0 0 -233z"/>
<path d="M9700 895 l0 -305 140 0 140 0 0 30 0 30 -110 0 -110 0 0 275 0 275
-30 0 -30 0 0 -305z"/>
<path d="M10150 1170 l0 -30 70 0 70 0 0 -275 0 -275 35 0 35 0 0 275 0 274
73 3 c70 3 72 4 75 31 l3 27 -180 0 -181 0 0 -30z"/>
<path d="M10710 968 c0 -216 1 -235 21 -276 60 -123 268 -151 374 -49 57 56
65 98 65 352 l0 205 -35 0 -35 0 0 -227 c0 -250 -3 -262 -59 -300 -44 -30
-149 -32 -200 -5 -66 35 -71 59 -71 309 l0 223 -30 0 -30 0 0 -232z"/>
<path d="M11420 896 l0 -306 33 0 32 0 0 117 0 118 36 3 c36 3 38 1 125 -117
l89 -121 44 0 c33 0 41 3 34 13 -168 213 -174 222 -151 231 76 31 93 43 119
85 53 82 35 182 -44 245 -39 31 -40 31 -178 34 l-139 4 0 -306z m269 229 c38
-19 65 -77 58 -122 -14 -82 -64 -113 -181 -113 -88 0 -84 -7 -86 148 l-1 102
91 0 c60 0 101 -5 119 -15z"/>
</g>
</svg>
